<svg width="347" height="278" viewBox="0 0 347 278" fill="none" xmlns="http://www.w3.org/2000/svg">
<path d="M271.5 29.3778L177.065 5.08721C167.157 2.53866 159.125 8.78162 159.125 19.0312V145.215C159.125 155.465 167.157 165.84 177.065 168.388L271.5 192.679C281.408 195.228 289.44 188.985 289.44 178.735V52.551C289.44 42.3014 281.408 31.9264 271.5 29.3778Z" fill="url(#paint0_linear_1856_12841)" fill-opacity="0.63" stroke="#55648C"/>
<g style="mix-blend-mode:darken">
<path d="M230.74 61.5639L136.3 37.2909C126.392 34.7442 118.359 40.9886 118.359 51.2383V177.422C118.359 187.672 126.392 198.045 136.3 200.592L230.74 224.865C240.649 227.412 248.681 221.167 248.681 210.918V84.7337C248.681 74.484 240.649 64.1106 230.74 61.5639Z" fill="url(#paint1_linear_1856_12841)" stroke="#47567B"/>
</g>
<path d="M264.36 64.9633L266.31 65.4326C266.63 65.5096 266.9 65.4834 267.12 65.3541C267.34 65.2322 267.486 65.0193 267.557 64.7156L268.09 62.5145C268.276 62.4932 268.453 62.4667 268.623 62.4348C268.801 62.412 268.968 62.3829 269.125 62.3477L271.108 64.0604C271.371 64.2913 271.644 64.4264 271.929 64.4657C272.213 64.5122 272.465 64.4489 272.685 64.2759L274.05 63.2153C274.27 63.0423 274.395 62.8097 274.423 62.5176C274.451 62.2183 274.376 61.9123 274.199 61.5998L272.984 59.2952C273.069 59.148 273.143 58.9983 273.208 58.846C273.272 58.6864 273.332 58.5259 273.389 58.3647L275.681 58.3582C275.987 58.3662 276.225 58.2776 276.395 58.0927C276.573 57.9021 276.662 57.6428 276.662 57.3146V55.3571C276.662 55.0363 276.573 54.7415 276.395 54.4727C276.225 54.1985 275.987 53.9917 275.681 53.8526L273.41 52.7486C273.346 52.5364 273.279 52.3342 273.208 52.1421C273.137 51.9501 273.069 51.7698 273.005 51.6012L274.221 49.8486C274.391 49.6198 274.466 49.3571 274.445 49.0603C274.423 48.7636 274.299 48.4748 274.071 48.1941L272.675 46.4474C272.454 46.1902 272.209 46.0109 271.939 45.9095C271.676 45.8098 271.413 45.8049 271.15 45.8947L269.125 46.687C268.976 46.571 268.812 46.4587 268.634 46.3504C268.464 46.2364 268.282 46.1236 268.09 46.0118L267.557 43.5214C267.486 43.1907 267.34 42.9078 267.12 42.6725C266.9 42.43 266.63 42.2702 266.31 42.1933L264.36 41.724C264.047 41.6488 263.777 41.6786 263.549 41.8134C263.329 41.9427 263.183 42.1555 263.112 42.4519L262.579 44.664C262.394 44.6853 262.213 44.7109 262.036 44.7411C261.858 44.7712 261.691 44.8076 261.534 44.8502L259.52 43.0969C259.257 42.8805 258.99 42.7581 258.72 42.7296C258.457 42.6955 258.212 42.7605 257.984 42.9245L256.609 43.9935C256.382 44.1648 256.254 44.3929 256.225 44.6776C256.204 44.9642 256.279 45.2628 256.449 45.5736L257.654 47.9084C257.59 48.0462 257.522 48.194 257.451 48.3518C257.38 48.5097 257.316 48.6803 257.259 48.8634L255 48.8775C254.687 48.8679 254.442 48.9584 254.264 49.1489C254.093 49.3339 254.008 49.5868 254.008 49.9076V51.8652C254.008 52.1932 254.093 52.4945 254.264 52.7688C254.442 53.0375 254.687 53.2424 255 53.3832L257.281 54.4897C257.33 54.6767 257.391 54.8662 257.462 55.0583C257.533 55.243 257.604 55.4278 257.675 55.6126L256.471 57.3351C256.3 57.5638 256.229 57.8347 256.258 58.1477C256.286 58.4535 256.41 58.7459 256.63 59.0249L257.984 60.7395C258.204 61.0185 258.457 61.2032 258.741 61.2934C259.025 61.3909 259.299 61.3875 259.562 61.2831L261.545 60.5243C261.702 60.6348 261.865 60.7434 262.036 60.85C262.213 60.9657 262.394 61.0785 262.579 61.1886L263.112 63.6462C263.183 63.9841 263.329 64.2671 263.549 64.4951C263.777 64.732 264.047 64.8881 264.36 64.9633ZM265.34 57.4127C264.658 57.2486 264.032 56.9268 263.464 56.4474C262.895 55.9606 262.444 55.3855 262.11 54.7219C261.776 54.0583 261.609 53.3765 261.609 52.6766C261.609 51.9767 261.776 51.3789 262.11 50.8833C262.451 50.3893 262.903 50.0386 263.464 49.831C264.032 49.6178 264.658 49.5933 265.34 49.7574C266.023 49.9215 266.644 50.2461 267.206 50.7311C267.774 51.2106 268.226 51.7784 268.56 52.4348C268.894 53.0911 269.06 53.7692 269.06 54.4691C269.06 55.169 268.894 55.7705 268.56 56.2734C268.226 56.7763 267.774 57.1343 267.206 57.3475C266.644 57.5551 266.023 57.5769 265.34 57.4127Z" fill="white"/>
<mask id="mask0_1856_12841" style="mask-type:luminance" maskUnits="userSpaceOnUse" x="209" y="68" width="27" height="36">
<path d="M235.315 75.1603L209.41 68.9336V96.9608L235.315 103.188V75.1603Z" fill="white"/>
</mask>
<g mask="url(#mask0_1856_12841)">
<path d="M230.132 77.515C230.883 77.6961 231.49 78.4748 231.49 79.2557C231.49 80.036 230.883 80.5238 230.132 80.3427L214.529 76.5894C214.154 76.4992 213.851 76.7446 213.851 77.1332C213.851 77.5218 214.154 77.9135 214.529 78.0036L230.132 81.757C231.629 82.1168 232.847 83.678 232.847 85.2377V95.1343C232.847 96.694 231.629 97.6696 230.132 97.3091L213.851 93.3928C212.352 93.0323 211.137 91.4718 211.137 89.9121V75.7735C211.137 74.2115 212.352 73.2379 213.851 73.5985L230.132 77.515ZM228.776 90.6204C229.526 90.8015 230.132 90.3151 230.132 89.5334C230.132 88.7509 229.526 87.9737 228.776 87.7927C228.026 87.6124 227.419 88.098 227.419 88.8804C227.419 89.6622 228.026 90.4401 228.776 90.6204Z" fill="white"/>
</g>
<g style="mix-blend-mode:multiply">
<path d="M193.638 100.501L99.1988 76.2284C89.2903 73.6817 81.2578 79.9261 81.2578 90.1758V216.36C81.2578 226.609 89.2903 236.983 99.1988 239.53L193.638 263.803C203.547 266.349 211.579 260.105 211.579 249.855V123.671C211.579 113.422 203.547 103.048 193.638 100.501Z" fill="url(#paint2_linear_1856_12841)" stroke="#050D22"/>
</g>
<path d="M167.074 120.279L175.759 125.332V123.085L167.327 118.314V119.774L175.759 119.069V116.848L167.074 117.723V120.279Z" fill="white"/>
<path d="M184.362 115.51L181.722 114.875L179.262 130.198L181.901 130.833L184.362 115.51Z" fill="white"/>
<path d="M196.564 124.814L187.879 120.098V122.362L196.385 126.833V125.311L187.879 125.68V127.909L196.564 127.37V124.814Z" fill="white"/>
<path d="M55.0257 210.475C73.4853 210.475 88.4498 195.627 88.4498 177.31C88.4498 158.993 73.4853 144.145 55.0257 144.145C36.566 144.145 21.6016 158.993 21.6016 177.31C21.6016 195.627 36.566 210.475 55.0257 210.475Z" fill="url(#paint3_linear_1856_12841)"/>
<path d="M52.7549 207.604C71.244 207.604 86.2325 192.586 86.2325 174.06C86.2325 155.534 71.244 140.516 52.7549 140.516C34.2658 140.516 19.2773 155.534 19.2773 174.06C19.2773 192.586 34.2658 207.604 52.7549 207.604Z" fill="url(#paint4_linear_1856_12841)" stroke="black"/>
<g style="mix-blend-mode:hard-light">
<path d="M61.6712 184.812C61.6712 184.812 60.8266 183.803 60.1255 182.923C63.1849 182.058 64.3481 180.137 64.3481 180.137C63.392 180.761 62.4838 181.209 61.6712 181.513C60.5079 182.01 59.3925 182.33 58.2931 182.522C56.0623 182.939 54.0068 182.826 52.254 182.506C50.9315 182.25 49.7843 181.882 48.8282 181.497C48.2864 181.289 47.7128 181.033 47.1232 180.696C47.0595 180.649 46.9798 180.633 46.9161 180.584C46.8683 180.568 46.8524 180.537 46.8205 180.521C46.4062 180.281 46.1671 180.12 46.1671 180.12C46.1671 180.12 47.2825 181.994 50.2463 182.89C49.5452 183.787 48.6847 184.828 48.6847 184.828C43.538 184.651 41.5781 181.241 41.5781 181.241C41.5781 173.699 44.9402 167.583 44.9402 167.583C48.2864 165.069 51.4892 165.133 51.4892 165.133L51.7282 165.422C47.5216 166.638 45.5936 168.48 45.5936 168.48C45.5936 168.48 46.1034 168.192 46.9639 167.807C49.4496 166.702 51.4414 166.398 52.254 166.334C52.3974 166.318 52.509 166.286 52.6524 166.286C54.0705 166.093 55.6799 166.046 57.3529 166.238C59.5678 166.494 61.942 167.151 64.364 168.48C64.364 168.48 62.5157 166.718 58.564 165.501L58.8826 165.133C58.8826 165.133 62.0695 165.069 65.4316 167.599C65.4316 167.599 68.7937 173.715 68.7937 181.257C68.8097 181.241 66.8179 184.651 61.6712 184.812ZM50.8359 173.876C49.5134 173.876 48.4617 175.045 48.4617 176.47C48.4617 177.894 49.5293 179.063 50.8359 179.063C52.1585 179.063 53.2101 177.894 53.2101 176.47C53.226 175.045 52.1585 173.876 50.8359 173.876ZM59.3448 173.876C58.0222 173.876 56.9706 175.045 56.9706 176.47C56.9706 177.894 58.0382 179.063 59.3448 179.063C60.6673 179.063 61.7189 177.894 61.7189 176.47C61.7189 175.045 60.6673 173.876 59.3448 173.876Z" fill="#53E6DD"/>
</g>
<g style="mix-blend-mode:darken" opacity="0.46">
<path d="M29.8617 187.858C46.3538 187.858 59.7233 174.462 59.7233 157.937C59.7233 141.412 46.3538 128.016 29.8617 128.016C13.3695 128.016 0 141.412 0 157.937C0 174.462 13.3695 187.858 29.8617 187.858Z" fill="#27DFDC"/>
</g>
<g style="mix-blend-mode:color-dodge">
<path d="M35.1129 168.943C35.3484 168.943 35.5339 168.864 35.6696 168.707C35.8051 168.55 35.8729 168.335 35.8729 168.064V164.953H36.5581C37.5215 164.953 38.3422 164.774 39.0202 164.416C39.6982 164.059 40.2156 163.541 40.5724 162.861C40.9221 162.182 41.097 161.363 41.097 160.405V151.781C41.097 150.815 40.9221 149.997 40.5724 149.325C40.2156 148.645 39.6982 148.127 39.0202 147.77C38.3422 147.404 37.5215 147.223 36.5581 147.223H22.4061C21.4426 147.223 20.6219 147.404 19.944 147.77C19.266 148.127 18.7522 148.645 18.4024 149.325C18.0456 150.004 17.8672 150.823 17.8672 151.781V160.405C17.8672 161.363 18.0456 162.182 18.4024 162.861C18.7522 163.533 19.266 164.052 19.944 164.416C20.6219 164.774 21.4426 164.953 22.4061 164.953H30.2636L34.1388 168.417C34.3315 168.596 34.4991 168.729 34.6419 168.814C34.7846 168.9 34.9416 168.943 35.1129 168.943ZM35.2842 152.907H24.0119C23.862 152.907 23.7371 152.857 23.6372 152.757C23.5373 152.657 23.4873 152.536 23.4873 152.393C23.4873 152.249 23.5373 152.131 23.6372 152.038C23.7371 151.938 23.862 151.888 24.0119 151.888H35.2842C35.4269 151.888 35.5482 151.938 35.6481 152.038C35.748 152.131 35.798 152.249 35.798 152.393C35.798 152.536 35.748 152.657 35.6481 152.757C35.5482 152.857 35.4269 152.907 35.2842 152.907ZM35.2842 156.469H24.0119C23.862 156.469 23.7371 156.419 23.6372 156.318C23.5373 156.218 23.4873 156.097 23.4873 155.954C23.4873 155.818 23.5373 155.7 23.6372 155.6C23.7371 155.492 23.862 155.438 24.0119 155.438H35.2842C35.4269 155.438 35.5482 155.492 35.6481 155.6C35.748 155.7 35.798 155.818 35.798 155.954C35.798 156.097 35.748 156.218 35.6481 156.318C35.5482 156.419 35.4269 156.469 35.2842 156.469ZM35.2842 160.04H27.8978C27.755 160.04 27.6337 159.99 27.5338 159.89C27.4267 159.79 27.3732 159.668 27.3732 159.525C27.3732 159.382 27.4267 159.261 27.5338 159.161C27.6337 159.061 27.755 159.011 27.8978 159.011H35.2842C35.4269 159.011 35.5482 159.061 35.6481 159.161C35.748 159.261 35.798 159.382 35.798 159.525C35.798 159.668 35.748 159.79 35.6481 159.89C35.5482 159.99 35.4269 160.04 35.2842 160.04Z" fill="url(#paint5_linear_1856_12841)"/>
</g>
<path d="M61.9907 128.775C61.1539 128.775 60.3632 128.481 59.6186 127.894C58.8739 127.307 58.2129 126.477 57.6356 125.405C57.0583 124.323 56.6023 123.044 56.2676 121.569C55.9412 120.093 55.7781 118.467 55.7781 116.69C55.7781 114.912 55.9412 113.285 56.2676 111.81C56.6023 110.326 57.0541 109.043 57.6231 107.962C58.2003 106.881 58.8614 106.046 59.606 105.46C60.3591 104.873 61.1539 104.58 61.9907 104.58C62.8274 104.58 63.6181 104.873 64.3627 105.46C65.1074 106.046 65.7684 106.881 66.3457 107.962C66.923 109.043 67.3749 110.326 67.7012 111.81C68.0275 113.285 68.1907 114.912 68.1907 116.69C68.1907 118.467 68.0233 120.093 67.6886 121.569C67.3624 123.044 66.9105 124.323 66.3331 125.405C65.7642 126.477 65.1032 127.307 64.3502 127.894C63.6055 128.481 62.819 128.775 61.9907 128.775ZM61.9907 105.749C61.3464 105.749 60.7314 106.038 60.1457 106.616C59.56 107.187 59.0371 107.975 58.5769 108.981C58.125 109.986 57.7653 111.152 57.4975 112.476C57.2381 113.793 57.1085 115.197 57.1085 116.69C57.1085 118.148 57.2381 119.532 57.4975 120.839C57.7653 122.147 58.125 123.309 58.5769 124.323C59.0371 125.337 59.56 126.134 60.1457 126.712C60.7314 127.299 61.3464 127.592 61.9907 127.592C62.6349 127.592 63.2499 127.299 63.8356 126.712C64.4213 126.134 64.9401 125.337 65.3919 124.323C65.8437 123.309 66.1993 122.147 66.4587 120.839C66.7264 119.532 66.8603 118.148 66.8603 116.69C66.8603 115.197 66.7264 113.793 66.4587 112.476C66.1993 111.152 65.8437 109.986 65.3919 108.981C64.9401 107.975 64.4213 107.187 63.8356 106.616C63.2499 106.038 62.6349 105.749 61.9907 105.749ZM61.3506 104.768H62.6433V128.536H61.3506V104.768ZM61.9907 121.694C63.2541 121.694 64.4506 121.8 65.5801 122.009C66.7181 122.21 67.7388 122.5 68.6425 122.877C69.5545 123.254 70.3034 123.694 70.8891 124.197L69.885 125.027C69.3244 124.591 68.6509 124.222 67.8643 123.921C67.0779 123.618 66.1909 123.393 65.2036 123.241C64.2163 123.082 63.1453 123.003 61.9907 123.003C60.8276 123.003 59.7525 123.082 58.7651 123.241C57.7862 123.393 56.8993 123.618 56.1044 123.921C55.3179 124.222 54.6444 124.591 54.0837 125.027L53.0923 124.197C53.6779 123.694 54.4227 123.254 55.3263 122.877C56.2383 122.5 57.2591 122.21 58.3887 122.009C59.5182 121.8 60.7189 121.694 61.9907 121.694ZM73.6502 116.01V117.305H50.3185V116.01H73.6502ZM61.9907 111.684C60.7189 111.684 59.5182 111.584 58.3887 111.383C57.2591 111.181 56.2383 110.892 55.3263 110.515C54.4227 110.137 53.6779 109.697 53.0923 109.194L54.0837 108.365C54.6444 108.8 55.3179 109.169 56.1044 109.471C56.8993 109.773 57.7862 110.003 58.7651 110.163C59.7525 110.314 60.8276 110.389 61.9907 110.389C63.1453 110.389 64.2163 110.314 65.2036 110.163C66.1909 110.003 67.0779 109.773 67.8643 109.471C68.6509 109.169 69.3244 108.8 69.885 108.365L70.8891 109.194C70.3034 109.697 69.5545 110.137 68.6425 110.515C67.7388 110.892 66.7181 111.181 65.5801 111.383C64.4506 111.584 63.2541 111.684 61.9907 111.684ZM61.9907 129.278C60.2671 129.278 58.6438 128.947 57.121 128.285C55.6065 127.63 54.2678 126.725 53.1048 125.568C51.9502 124.402 51.0423 123.061 50.3814 121.544C49.7287 120.018 49.4023 118.392 49.4023 116.665C49.4023 114.937 49.7287 113.315 50.3814 111.798C51.0423 110.272 51.9502 108.931 53.1048 107.773C54.2594 106.608 55.594 105.698 57.1085 105.045C58.6313 104.382 60.2545 104.051 61.9781 104.051C63.7017 104.051 65.325 104.382 66.8477 105.045C68.3705 105.698 69.7093 106.608 70.8639 107.773C72.0186 108.931 72.9264 110.272 73.5874 111.798C74.2484 113.315 74.579 114.937 74.579 116.665C74.579 118.392 74.2484 120.018 73.5874 121.544C72.9264 123.061 72.0186 124.402 70.8639 125.568C69.7093 126.725 68.3705 127.63 66.8477 128.285C65.3333 128.947 63.7142 129.278 61.9907 129.278ZM61.9907 127.932C63.5302 127.932 64.9777 127.638 66.3331 127.052C67.6886 126.465 68.881 125.656 69.9101 124.624C70.9476 123.585 71.7592 122.386 72.3449 121.028C72.939 119.661 73.236 118.207 73.236 116.665C73.236 115.122 72.939 113.671 72.3449 112.314C71.7592 110.946 70.9476 109.748 69.9101 108.716C68.881 107.677 67.6845 106.864 66.3206 106.277C64.9652 105.69 63.5177 105.397 61.9781 105.397C60.4385 105.397 58.9869 105.69 57.6231 106.277C56.2676 106.864 55.0752 107.677 54.0461 108.716C53.017 109.748 52.2095 110.946 51.6238 112.314C51.0382 113.671 50.7453 115.122 50.7453 116.665C50.7453 118.207 51.0382 119.661 51.6238 121.028C52.2095 122.386 53.017 123.585 54.0461 124.624C55.0836 125.656 56.2801 126.465 57.6356 127.052C58.9994 127.638 60.4511 127.932 61.9907 127.932Z" fill="url(#paint6_linear_1856_12841)"/>
<path d="M327.003 129.056C326.767 129.059 326.582 128.983 326.447 128.828C326.311 128.672 326.243 128.458 326.243 128.187V125.076L325.558 125.085C324.595 125.098 323.774 124.93 323.096 124.581C322.418 124.232 321.901 123.721 321.544 123.046C321.194 122.371 321.02 121.555 321.02 120.597V111.973C321.02 111.008 321.194 110.186 321.544 109.509C321.901 108.825 322.418 108.3 323.096 107.934C323.774 107.56 324.595 107.367 325.558 107.354L339.708 107.169C340.672 107.156 341.493 107.328 342.171 107.684C342.849 108.032 343.362 108.544 343.712 109.218C344.069 109.893 344.247 110.71 344.247 111.668V120.292C344.247 121.25 344.069 122.071 343.712 122.756C343.362 123.432 342.849 123.957 342.171 124.33C341.493 124.697 340.672 124.886 339.708 124.899L331.852 125.002L327.977 128.518C327.784 128.699 327.617 128.834 327.474 128.921C327.331 129.009 327.174 129.054 327.003 129.056ZM326.832 113.022L338.103 112.875C338.253 112.872 338.378 112.821 338.478 112.719C338.577 112.618 338.627 112.496 338.627 112.353C338.627 112.21 338.577 112.093 338.478 112.001C338.378 111.902 338.253 111.854 338.103 111.856L326.832 112.004C326.689 112.005 326.568 112.057 326.468 112.159C326.368 112.253 326.318 112.372 326.318 112.514C326.318 112.657 326.368 112.779 326.468 112.877C326.568 112.976 326.689 113.025 326.832 113.022ZM326.832 116.583L338.103 116.436C338.253 116.434 338.378 116.382 338.478 116.28C338.577 116.18 338.627 116.057 338.627 115.914C338.627 115.778 338.577 115.661 338.478 115.562C338.378 115.456 338.253 115.404 338.103 115.406L326.832 115.554C326.689 115.556 326.568 115.611 326.468 115.72C326.368 115.821 326.318 115.94 326.318 116.076C326.318 116.218 326.368 116.34 326.468 116.438C326.568 116.537 326.689 116.586 326.832 116.583ZM326.832 120.156L334.218 120.059C334.361 120.057 334.481 120.005 334.581 119.904C334.689 119.802 334.742 119.68 334.742 119.537C334.742 119.394 334.689 119.273 334.581 119.174C334.481 119.076 334.361 119.027 334.218 119.029L326.832 119.126C326.689 119.128 326.568 119.179 326.468 119.281C326.368 119.382 326.318 119.504 326.318 119.648C326.318 119.791 326.368 119.911 326.468 120.01C326.568 120.109 326.689 120.157 326.832 120.156Z" fill="url(#paint7_linear_1856_12841)"/>
<g style="mix-blend-mode:multiply">
<g style="mix-blend-mode:darken">
<path d="M280.473 87.4461C280.473 85.3978 281.65 83.5018 283.497 82.5754L303.524 72.5334C304.958 71.8142 306.622 71.7705 308.056 72.4145L328.083 81.4058C329.93 82.2353 331.107 84.0692 331.107 86.1182V109.888C331.107 111.936 329.93 113.832 328.083 114.757L308.056 124.8C306.622 125.519 304.958 125.563 303.524 124.919L283.497 115.928C281.65 115.098 280.473 113.264 280.473 111.215V87.4461Z" fill="#4E5FFF"/>
</g>
</g>
<g style="mix-blend-mode:color-dodge">
<path d="M295.15 107.544C294.176 107.531 293.434 107.27 292.925 106.76C292.423 106.25 292.172 105.507 292.172 104.531V93.69C292.172 92.7212 292.423 91.9879 292.925 91.4918C293.434 90.9956 294.176 90.7532 295.15 90.7661L316.234 91.0426C317.208 91.0555 317.946 91.3206 318.448 91.8372C318.957 92.347 319.212 93.0833 319.212 94.0445V104.886C319.212 105.847 318.957 106.58 318.448 107.083C317.946 107.588 317.208 107.833 316.234 107.82L295.15 107.544ZM296.225 96.417L297.066 96.4284C297.376 96.4322 297.531 96.2792 297.531 95.9686V95.1247C297.531 94.8066 297.376 94.646 297.066 94.6415L296.225 94.6308C295.922 94.6271 295.77 94.7839 295.77 95.102V95.9451C295.77 96.2557 295.922 96.4132 296.225 96.417ZM299.812 96.464L300.653 96.4753C300.964 96.4791 301.119 96.3261 301.119 96.0155V95.1725C301.119 94.8543 300.964 94.693 300.653 94.6892L299.812 94.6778C299.502 94.674 299.347 94.8308 299.347 95.149V95.9921C299.347 96.3026 299.502 96.4602 299.812 96.464ZM303.389 96.5109L304.241 96.5223C304.551 96.5261 304.706 96.3731 304.706 96.0625V95.2194C304.706 94.9013 304.551 94.7399 304.241 94.7361L303.389 94.7248C303.086 94.721 302.935 94.8778 302.935 95.1959V96.039C302.935 96.3496 303.086 96.5072 303.389 96.5109ZM306.976 96.5579L307.818 96.5693C308.135 96.5738 308.294 96.42 308.294 96.1095V95.2664C308.294 94.9482 308.135 94.7869 307.818 94.7831L306.976 94.7717C306.674 94.768 306.522 94.9248 306.522 95.2429V96.086C306.522 96.3973 306.674 96.5541 306.976 96.5579ZM310.564 96.6056L311.406 96.6162C311.716 96.6208 311.871 96.467 311.871 96.1564V95.3133C311.871 94.9952 311.716 94.8339 311.406 94.8301L310.564 94.8187C310.254 94.8149 310.099 94.9717 310.099 95.2899V96.133C310.099 96.4435 310.254 96.6011 310.564 96.6056ZM314.152 96.6526L314.994 96.6632C315.304 96.6677 315.459 96.514 315.459 96.2034V95.3603C315.459 95.0422 315.304 94.8808 314.994 94.877L314.152 94.8657C313.842 94.8619 313.687 95.0187 313.687 95.3368V96.1799C313.687 96.4912 313.842 96.648 314.152 96.6526ZM296.225 100.012L297.066 100.023C297.376 100.027 297.531 99.8742 297.531 99.5636V98.7092C297.531 98.3986 297.376 98.2411 297.066 98.2373L296.225 98.2259C295.922 98.2221 295.77 98.3751 295.77 98.6857V99.5402C295.77 99.8507 295.922 100.008 296.225 100.012ZM299.812 100.06L300.653 100.07C300.964 100.074 301.119 99.9212 301.119 99.6106V98.7561C301.119 98.4456 300.964 98.288 300.653 98.2842L299.812 98.2729C299.502 98.2691 299.347 98.4221 299.347 98.7327V99.5871C299.347 99.8977 299.502 100.055 299.812 100.06ZM303.389 100.106L304.241 100.117C304.551 100.122 304.706 99.9681 304.706 99.6576V98.8031C304.706 98.4925 304.551 98.335 304.241 98.3312L303.389 98.3198C303.086 98.3161 302.935 98.4691 302.935 98.7796V99.6341C302.935 99.9454 303.086 100.102 303.389 100.106ZM306.976 100.154L307.818 100.164C308.135 100.169 308.294 100.015 308.294 99.7045V98.8501C308.294 98.5395 308.135 98.382 307.818 98.3782L306.976 98.3668C306.674 98.363 306.522 98.516 306.522 98.8274V99.6811C306.522 99.9924 306.674 100.149 306.976 100.154ZM310.564 100.201L311.406 100.211C311.716 100.216 311.871 100.062 311.871 99.7515V98.897C311.871 98.5865 311.716 98.4289 311.406 98.4251L310.564 98.4138C310.254 98.41 310.099 98.563 310.099 98.8736V99.728C310.099 100.039 310.254 100.196 310.564 100.201ZM314.152 100.248L314.994 100.258C315.304 100.263 315.459 100.109 315.459 99.7985V98.944C315.459 98.6334 315.304 98.4759 314.994 98.4721L314.152 98.4607C313.842 98.4569 313.687 98.61 313.687 98.9213V99.7757C313.687 100.086 313.842 100.243 314.152 100.248ZM296.225 103.607L297.066 103.619C297.376 103.622 297.531 103.465 297.531 103.147V102.304C297.531 101.994 297.376 101.836 297.066 101.832L296.225 101.821C295.922 101.817 295.77 101.97 295.77 102.281V103.125C295.77 103.443 295.922 103.603 296.225 103.607ZM299.835 103.655L311.384 103.806C311.708 103.811 311.871 103.647 311.871 103.313V102.515C311.871 102.189 311.708 102.024 311.384 102.02L299.835 101.869C299.51 101.864 299.347 102.025 299.347 102.35V103.149C299.347 103.482 299.51 103.65 299.835 103.655ZM314.152 103.843L314.994 103.854C315.304 103.858 315.459 103.701 315.459 103.383V102.539C315.459 102.228 315.304 102.071 314.994 102.067L314.152 102.057C313.842 102.052 313.687 102.206 313.687 102.516V103.359C313.687 103.678 313.842 103.839 314.152 103.843Z" fill="#53E6DD"/>
</g>
<path d="M244.684 270.844C243.909 270.844 243.319 270.641 242.916 270.238C242.524 269.823 242.249 269.301 242.094 268.669C241.95 268.026 241.867 267.358 241.846 266.664C241.836 265.96 241.831 265.318 241.831 264.738C241.831 263.962 241.552 263.314 240.993 262.797C240.446 262.279 239.748 262.02 238.901 262.02C237.629 262.02 236.647 261.678 235.955 260.995C235.262 260.311 234.916 259.353 234.916 258.121C234.916 257.147 235.2 256.251 235.769 255.433C236.348 254.604 237.108 253.936 238.048 253.429C238.999 252.922 240.027 252.668 241.133 252.668C241.64 252.668 242.152 252.756 242.668 252.932C243.185 253.098 243.661 253.264 244.095 253.429C244.539 253.595 244.88 253.678 245.117 253.678C245.387 253.678 245.578 253.533 245.691 253.242C245.815 252.953 245.877 252.663 245.877 252.373C245.877 252.145 245.764 251.922 245.536 251.705C245.319 251.487 245.05 251.285 244.73 251.099C244.41 250.912 244.095 250.752 243.785 250.618C243.484 250.472 243.252 250.364 243.087 250.291L243.521 250.213C243.304 250.659 243.123 250.965 242.978 251.13C242.834 251.296 242.611 251.378 242.311 251.378C242.053 251.378 241.81 251.312 241.583 251.177C241.356 251.031 241.123 250.887 240.885 250.742C240.647 250.587 240.394 250.509 240.126 250.509C239.825 250.509 239.593 250.607 239.428 250.804C239.262 250.99 239.107 251.208 238.963 251.456C238.828 251.705 238.648 251.922 238.42 252.108C238.203 252.295 237.898 252.388 237.505 252.388C237.061 252.388 236.715 252.269 236.467 252.031C236.219 251.793 236.095 251.467 236.095 251.053C236.095 250.638 236.239 250.229 236.529 249.825C236.818 249.411 237.102 248.945 237.381 248.427C237.671 247.899 237.815 247.251 237.815 246.485V245.522H238.761L238.746 246.454C238.746 247.231 238.601 247.904 238.311 248.473C238.032 249.043 237.748 249.535 237.458 249.95C237.17 250.353 237.025 250.711 237.025 251.021C237.025 251.343 237.195 251.502 237.536 251.502C237.774 251.502 237.97 251.409 238.125 251.223C238.28 251.037 238.435 250.819 238.591 250.571C238.746 250.322 238.937 250.105 239.164 249.919C239.392 249.732 239.696 249.639 240.079 249.639C240.327 249.639 240.596 249.701 240.885 249.825C241.185 249.939 241.474 250.084 241.753 250.26L242.265 250.587L241.955 250.664C242.172 250.229 242.353 249.919 242.498 249.732C242.653 249.546 242.885 249.452 243.195 249.452C243.433 249.452 243.748 249.535 244.141 249.701C244.544 249.856 244.947 250.069 245.35 250.337C245.764 250.597 246.11 250.892 246.389 251.223C246.679 251.544 246.823 251.876 246.823 252.218C246.823 252.632 246.761 253.025 246.637 253.398C246.513 253.761 246.338 254.056 246.11 254.283C245.893 254.511 245.629 254.626 245.319 254.626C244.864 254.626 244.415 254.542 243.971 254.376C243.526 254.211 243.071 254.045 242.606 253.879C242.141 253.704 241.65 253.616 241.133 253.616C240.193 253.616 239.319 253.823 238.513 254.237C237.717 254.651 237.077 255.2 236.591 255.884C236.104 256.567 235.862 257.312 235.862 258.121C235.862 260.088 236.875 261.072 238.901 261.072C240.017 261.072 240.942 261.424 241.676 262.129C242.409 262.822 242.777 263.692 242.777 264.738C242.777 265.318 242.777 265.914 242.777 266.525C242.787 267.126 242.839 267.68 242.932 268.187C243.035 268.695 243.221 269.109 243.49 269.43C243.759 269.741 244.157 269.896 244.684 269.896C245.19 269.896 245.691 269.714 246.187 269.352C246.684 268.979 247.149 268.529 247.583 268.001C248.027 267.473 248.415 266.949 248.745 266.431C249.086 265.914 249.356 265.494 249.552 265.173C249.758 264.853 249.888 264.547 249.939 264.256C250.001 263.956 250.012 263.506 249.97 262.905C249.96 262.791 249.95 262.672 249.939 262.548C249.929 262.423 249.924 262.299 249.924 262.175C249.924 261.926 249.986 261.688 250.11 261.46C250.234 261.232 250.456 260.938 250.777 260.575C251.076 260.233 251.283 259.954 251.397 259.736C251.51 259.519 251.568 259.301 251.568 259.083C251.568 258.835 251.413 258.612 251.102 258.415C250.792 258.209 250.431 257.996 250.017 257.779C249.614 257.562 249.257 257.308 248.947 257.018C248.637 256.717 248.482 256.35 248.482 255.915C248.482 255.448 248.663 255.013 249.024 254.61C249.387 254.195 249.774 253.989 250.187 253.989C250.549 253.989 250.839 254.071 251.056 254.237C251.283 254.392 251.51 254.564 251.738 254.75C252.027 254.988 252.275 255.195 252.482 255.371C252.699 255.547 252.885 255.682 253.04 255.775C253.195 255.868 253.324 255.915 253.428 255.915C253.676 255.915 253.877 255.816 254.032 255.619C254.198 255.413 254.451 255.309 254.792 255.309C255.123 255.309 255.382 255.469 255.568 255.791C255.763 256.101 255.918 256.505 256.032 257.002C256.146 257.5 256.265 258.017 256.389 258.556C256.523 259.094 256.689 259.586 256.885 260.031C257.092 260.466 257.371 260.787 257.722 260.995L257.366 261.818C257.014 261.59 256.705 261.258 256.435 260.823C256.177 260.389 255.949 259.917 255.753 259.41C255.557 258.902 255.386 258.421 255.242 257.965C255.107 257.509 254.988 257.131 254.885 256.831C254.782 256.531 254.694 256.381 254.622 256.381C254.446 256.381 254.322 256.427 254.249 256.521C254.177 256.614 254.094 256.707 254.001 256.8C253.908 256.883 253.764 256.925 253.567 256.925C253.319 256.925 253.04 256.816 252.73 256.598C252.43 256.381 252.125 256.132 251.816 255.853C251.515 255.563 251.231 255.309 250.963 255.091C250.694 254.874 250.462 254.765 250.265 254.765C250.017 254.765 249.8 254.889 249.614 255.138C249.428 255.386 249.334 255.64 249.334 255.899C249.334 256.138 249.495 256.37 249.815 256.598C250.136 256.826 250.502 257.059 250.916 257.297C251.34 257.525 251.712 257.789 252.032 258.09C252.353 258.38 252.513 258.711 252.513 259.083C252.513 259.571 252.373 260 252.094 260.373C251.825 260.736 251.552 261.067 251.273 261.367C251.004 261.657 250.87 261.926 250.87 262.175C250.87 262.579 250.895 263.071 250.947 263.651C251.009 264.231 250.854 264.826 250.482 265.437C250.327 265.696 250.063 266.121 249.691 266.711C249.33 267.291 248.891 267.902 248.373 268.545C247.856 269.176 247.283 269.719 246.653 270.175C246.032 270.621 245.376 270.844 244.684 270.844ZM248.482 249.809C248.224 249.809 248.011 249.856 247.847 249.95C247.692 250.032 247.5 250.074 247.273 250.074C247.045 250.074 246.854 250.001 246.699 249.856C246.555 249.711 246.482 249.525 246.482 249.297C246.482 248.945 246.648 248.676 246.978 248.489C247.309 248.303 247.774 248.21 248.373 248.21C248.891 248.21 249.314 248.329 249.645 248.567C249.986 248.794 250.156 249.085 250.156 249.437C250.156 249.623 250.105 249.784 250.001 249.919C249.898 250.053 249.764 250.12 249.598 250.12C249.33 250.12 249.113 250.069 248.947 249.965C248.792 249.861 248.637 249.809 248.482 249.809ZM243.412 274.432C241.325 274.432 239.361 274.033 237.521 273.236C235.692 272.449 234.079 271.356 232.684 269.958C231.288 268.56 230.193 266.944 229.397 265.111C228.611 263.268 228.219 261.3 228.219 259.208C228.219 257.116 228.611 255.154 229.397 253.32C230.193 251.477 231.288 249.856 232.684 248.458C234.079 247.06 235.692 245.967 237.521 245.18C239.361 244.383 241.325 243.984 243.412 243.984C245.5 243.984 247.459 244.383 249.288 245.18C251.128 245.967 252.745 247.06 254.141 248.458C255.536 249.856 256.632 251.477 257.428 253.32C258.223 255.154 258.622 257.116 258.622 259.208C258.622 261.3 258.223 263.268 257.428 265.111C256.632 266.944 255.536 268.56 254.141 269.958C252.745 271.356 251.133 272.449 249.303 273.236C247.475 274.033 245.511 274.432 243.412 274.432ZM243.412 273.375C245.356 273.375 247.18 273.008 248.885 272.272C250.601 271.537 252.105 270.517 253.397 269.212C254.699 267.908 255.717 266.4 256.451 264.692C257.185 262.983 257.552 261.155 257.552 259.208C257.552 257.261 257.185 255.433 256.451 253.724C255.717 252.015 254.699 250.509 253.397 249.203C252.105 247.899 250.601 246.879 248.885 246.143C247.18 245.408 245.356 245.04 243.412 245.04C241.469 245.04 239.64 245.408 237.924 246.143C236.219 246.879 234.715 247.899 233.412 249.203C232.12 250.509 231.107 252.015 230.373 253.724C229.65 255.433 229.288 257.261 229.288 259.208C229.288 261.155 229.65 262.983 230.373 264.692C231.107 266.4 232.126 267.908 233.428 269.212C234.73 270.517 236.234 271.537 237.939 272.272C239.645 273.008 241.469 273.375 243.412 273.375Z" fill="#2CD2CF"/>
<path d="M230.816 254.947C230.481 254.947 230.156 254.815 229.842 254.55C229.535 254.286 229.382 254.011 229.382 253.724C229.382 253.396 229.453 253.084 229.596 252.791C229.738 252.498 229.806 252.173 229.8 251.815C229.8 251.679 229.732 251.543 229.596 251.408C229.468 251.272 229.246 251.093 228.933 250.872C228.618 250.642 228.183 250.317 227.626 249.895C227.084 249.494 226.813 249.03 226.813 248.501C226.813 248.301 226.848 248.122 226.92 247.964C226.998 247.807 227.074 247.661 227.145 247.525C227.216 247.382 227.252 247.242 227.252 247.106C227.252 246.97 227.184 246.842 227.048 246.721C226.92 246.592 226.738 246.424 226.502 246.216L224.896 244.811C224.083 244.096 223.487 243.395 223.109 242.709C222.738 242.015 222.62 241.354 222.755 240.724C222.948 240.224 223.284 239.737 223.762 239.265C224.24 238.793 224.825 238.368 225.518 237.989C226.209 237.61 226.97 237.309 227.798 237.088C228.626 236.866 229.478 236.756 230.356 236.756C231.505 236.756 232.576 236.931 233.567 237.281C234.567 237.631 235.333 238.107 235.869 238.708C235.712 239.115 235.462 239.494 235.12 239.845C234.777 240.188 234.399 240.506 233.985 240.799C233.571 241.086 233.165 241.339 232.765 241.561C232.365 241.782 232.022 241.965 231.737 242.108C231.901 242.344 232.026 242.555 232.111 242.741C232.204 242.927 232.251 243.106 232.251 243.277C232.251 243.634 232.151 243.928 231.951 244.156C231.758 244.378 231.484 244.489 231.127 244.489C230.87 244.489 230.609 244.414 230.345 244.264C230.082 244.106 229.831 243.95 229.596 243.792C229.36 243.634 229.161 243.556 228.997 243.556C228.84 243.556 228.697 243.606 228.568 243.706C228.44 243.806 228.375 243.935 228.375 244.092C228.375 244.221 228.45 244.385 228.601 244.586C228.757 244.786 228.947 244.983 229.168 245.176C229.396 245.368 229.624 245.53 229.853 245.658C230.082 245.78 230.274 245.84 230.431 245.84C230.638 245.84 230.86 245.78 231.095 245.658C231.337 245.53 231.573 245.405 231.802 245.283C232.037 245.154 232.244 245.09 232.422 245.09C232.715 245.09 233.061 245.197 233.46 245.412C233.86 245.626 234.249 245.898 234.627 246.227C235.005 246.555 235.32 246.895 235.569 247.245C235.819 247.589 235.944 247.893 235.944 248.157C235.944 248.522 235.812 248.987 235.548 249.552C235.284 250.117 234.945 250.71 234.531 251.332C234.117 251.955 233.675 252.541 233.204 253.092C232.733 253.635 232.283 254.082 231.854 254.433C231.427 254.776 231.08 254.947 230.816 254.947ZM230.377 257.532C228.908 257.532 227.523 257.25 226.224 256.685C224.933 256.127 223.79 255.354 222.798 254.368C221.813 253.374 221.039 252.23 220.475 250.936C219.919 249.634 219.641 248.247 219.641 246.774C219.641 245.301 219.919 243.917 220.475 242.622C221.039 241.321 221.813 240.177 222.798 239.19C223.783 238.196 224.921 237.421 226.213 236.862C227.512 236.298 228.896 236.016 230.367 236.016C231.837 236.016 233.221 236.298 234.52 236.862C235.819 237.421 236.961 238.196 237.946 239.19C238.93 240.177 239.705 241.321 240.269 242.622C240.833 243.917 241.115 245.301 241.115 246.774C241.115 248.247 240.833 249.634 240.269 250.936C239.705 252.23 238.93 253.374 237.946 254.368C236.961 255.354 235.819 256.127 234.52 256.685C233.229 257.25 231.848 257.532 230.377 257.532ZM230.377 256.385C231.69 256.385 232.925 256.134 234.082 255.634C235.237 255.133 236.254 254.443 237.132 253.564C238.017 252.677 238.71 251.654 239.209 250.496C239.716 249.33 239.969 248.089 239.969 246.774C239.969 245.458 239.716 244.221 239.209 243.063C238.71 241.897 238.017 240.874 237.132 239.995C236.254 239.108 235.234 238.415 234.071 237.914C232.914 237.413 231.68 237.163 230.367 237.163C229.053 237.163 227.815 237.413 226.652 237.914C225.496 238.415 224.479 239.108 223.601 239.995C222.724 240.874 222.035 241.897 221.535 243.063C221.035 244.221 220.786 245.458 220.786 246.774C220.786 248.089 221.035 249.33 221.535 250.496C222.035 251.654 222.724 252.677 223.601 253.564C224.486 254.443 225.506 255.133 226.663 255.634C227.826 256.134 229.064 256.385 230.377 256.385Z" fill="url(#paint8_linear_1856_12841)"/>
<defs>
<linearGradient id="paint0_linear_1856_12841" x1="207.107" y1="12.3418" x2="167.527" y2="166.22" gradientUnits="userSpaceOnUse">
<stop stop-color="#30FFFF"/>
<stop offset="0.78125" stop-color="#AC83E0"/>
</linearGradient>
<linearGradient id="paint1_linear_1856_12841" x1="166.344" y1="44.5399" x2="126.791" y2="198.432" gradientUnits="userSpaceOnUse">
<stop stop-color="#3AC2D0"/>
<stop offset="1" stop-color="#1CE5C3"/>
</linearGradient>
<linearGradient id="paint2_linear_1856_12841" x1="193.528" y1="269.223" x2="151.535" y2="68.7088" gradientUnits="userSpaceOnUse">
<stop stop-color="#A363ED"/>
<stop offset="1" stop-color="#29F9EC"/>
</linearGradient>
<linearGradient id="paint3_linear_1856_12841" x1="55.0257" y1="144.145" x2="55.0257" y2="210.475" gradientUnits="userSpaceOnUse">
<stop stop-color="#752389"/>
<stop offset="0.963542" stop-color="#340651"/>
</linearGradient>
<linearGradient id="paint4_linear_1856_12841" x1="52.7549" y1="140.894" x2="52.7549" y2="207.225" gradientUnits="userSpaceOnUse">
<stop stop-color="#D846FD"/>
<stop offset="0.963542" stop-color="#9A16EC"/>
</linearGradient>
<linearGradient id="paint5_linear_1856_12841" x1="43.2387" y1="175.602" x2="44.1694" y2="138.631" gradientUnits="userSpaceOnUse">
<stop stop-color="#7D19B8"/>
<stop offset="0.489583" stop-color="#BD4AB2"/>
<stop offset="1" stop-color="#8282FF"/>
</linearGradient>
<linearGradient id="paint6_linear_1856_12841" x1="46.8708" y1="126.485" x2="46.8708" y2="97.7166" gradientUnits="userSpaceOnUse">
<stop stop-color="#9D4DFA"/>
<stop offset="1" stop-color="#7878EA"/>
</linearGradient>
<linearGradient id="paint7_linear_1856_12841" x1="328.866" y1="98.7119" x2="329.353" y2="135.822" gradientUnits="userSpaceOnUse">
<stop stop-color="#3AC2D0"/>
<stop offset="1" stop-color="#1CE5C3"/>
</linearGradient>
<linearGradient id="paint8_linear_1856_12841" x1="217.724" y1="253.858" x2="217.724" y2="233.308" gradientUnits="userSpaceOnUse">
<stop stop-color="#9D4DFA"/>
<stop offset="1" stop-color="#7878EA"/>
</linearGradient>
</defs>
</svg>
